# xmcd
#
# Track frame offsets: 
#        150
#        19482
#        35500
#        54524
#        70318
#        97286
#        114873
#        133485
#        147182
#        166766
#
# Disc length: 2498 seconds
#
# Revision: 0
# Processed by: cddbd v1.5.2PL0 Copyright (c) Steve Scherf et al.
# Submitted via: ExactAudioCopyFreeDBPlugin 1.0
#
DISCID=9209c00a
DTITLE=Sonia Leigh - 1978 December
DYEAR=2011
DGENRE=Country
TTITLE0=Ain't Dead Yet
TTITLE1=My Name Is Money
TTITLE2=Bar
TTITLE3=Ribbon Of Red
TTITLE4=I Just Might
TTITLE5=Sonia Leigh feat. Amy Ray - Virginia
TTITLE6=A Poem From The Ocean Floor
TTITLE7=If You Won't Tell
TTITLE8=Sonia Leigh feat. Zac Brown - Roaming
TTITLE9=1978 December
EXTD=
EXTT0=
EXTT1=
EXTT2=
EXTT3=
EXTT4=
EXTT5=
EXTT6=
EXTT7=
EXTT8=
EXTT9=
PLAYORDER=
